<mxfile host="app.diagrams.net" agent="Mozilla/5.0 (Windows NT 10.0; Win64; x64) AppleWebKit/537.36 (KHTML, like Gecko) Chrome/141.0.0.0 Safari/537.36" version="28.2.5">
  <diagram name="Página-1" id="8POwKMDOOBxmXvoObmHq">
    <mxGraphModel grid="1" page="1" gridSize="10" guides="1" tooltips="1" connect="1" arrows="1" fold="1" pageScale="1" pageWidth="827" pageHeight="1169" math="0" shadow="0">
      <root>
        <mxCell id="0" />
        <mxCell id="1" parent="0" />
        <mxCell id="RhceqjklY6ZLj0Ik1nLE-1" value="Sistema de Gestão de Olimpíadas" style="swimlane;whiteSpace=wrap;html=1;" vertex="1" parent="1">
          <mxGeometry x="200" y="70" width="490" height="640" as="geometry" />
        </mxCell>
        <mxCell id="RhceqjklY6ZLj0Ik1nLE-15" value="Cadastrar competição" style="ellipse;whiteSpace=wrap;html=1;" vertex="1" parent="RhceqjklY6ZLj0Ik1nLE-1">
          <mxGeometry x="65" y="60" width="110" height="80" as="geometry" />
        </mxCell>
        <mxCell id="RhceqjklY6ZLj0Ik1nLE-16" value="Inscrever na competição" style="ellipse;whiteSpace=wrap;html=1;" vertex="1" parent="RhceqjklY6ZLj0Ik1nLE-1">
          <mxGeometry x="55" y="400" width="120" height="80" as="geometry" />
        </mxCell>
        <mxCell id="RhceqjklY6ZLj0Ik1nLE-17" value="Alocar local a competição" style="ellipse;whiteSpace=wrap;html=1;" vertex="1" parent="RhceqjklY6ZLj0Ik1nLE-1">
          <mxGeometry x="40" y="220" width="120" height="80" as="geometry" />
        </mxCell>
        <mxCell id="RhceqjklY6ZLj0Ik1nLE-18" value="Registrar resultado" style="ellipse;whiteSpace=wrap;html=1;" vertex="1" parent="RhceqjklY6ZLj0Ik1nLE-1">
          <mxGeometry x="260" y="330" width="120" height="80" as="geometry" />
        </mxCell>
        <mxCell id="RhceqjklY6ZLj0Ik1nLE-19" value="Gerar relatórios de desempenho" style="ellipse;whiteSpace=wrap;html=1;" vertex="1" parent="RhceqjklY6ZLj0Ik1nLE-1">
          <mxGeometry x="230" y="120" width="120" height="80" as="geometry" />
        </mxCell>
        <mxCell id="RhceqjklY6ZLj0Ik1nLE-22" value="" style="endArrow=classic;html=1;rounded=0;entryX=1;entryY=0.5;entryDx=0;entryDy=0;" edge="1" parent="RhceqjklY6ZLj0Ik1nLE-1" target="RhceqjklY6ZLj0Ik1nLE-18">
          <mxGeometry width="50" height="50" relative="1" as="geometry">
            <mxPoint x="520" y="370" as="sourcePoint" />
            <mxPoint x="400" y="230" as="targetPoint" />
          </mxGeometry>
        </mxCell>
        <mxCell id="RhceqjklY6ZLj0Ik1nLE-25" value="" style="endArrow=block;dashed=1;endFill=0;endSize=12;html=1;rounded=0;exitX=0.583;exitY=1;exitDx=0;exitDy=0;entryX=0.5;entryY=0;entryDx=0;entryDy=0;exitPerimeter=0;" edge="1" parent="RhceqjklY6ZLj0Ik1nLE-1" source="RhceqjklY6ZLj0Ik1nLE-19" target="RhceqjklY6ZLj0Ik1nLE-18">
          <mxGeometry width="160" relative="1" as="geometry">
            <mxPoint x="240" y="300" as="sourcePoint" />
            <mxPoint x="400" y="300" as="targetPoint" />
          </mxGeometry>
        </mxCell>
        <mxCell id="RhceqjklY6ZLj0Ik1nLE-26" value="&amp;lt;&amp;lt;extends&amp;gt;&amp;gt;" style="edgeLabel;html=1;align=center;verticalAlign=middle;resizable=0;points=[];" connectable="0" vertex="1" parent="RhceqjklY6ZLj0Ik1nLE-25">
          <mxGeometry x="0.0375" relative="1" as="geometry">
            <mxPoint as="offset" />
          </mxGeometry>
        </mxCell>
        <mxCell id="RhceqjklY6ZLj0Ik1nLE-2" value="Administrador" style="shape=umlActor;verticalLabelPosition=bottom;verticalAlign=top;html=1;outlineConnect=0;" vertex="1" parent="1">
          <mxGeometry x="100" y="220" width="30" height="60" as="geometry" />
        </mxCell>
        <mxCell id="RhceqjklY6ZLj0Ik1nLE-3" value="Atleta" style="shape=umlActor;verticalLabelPosition=bottom;verticalAlign=top;html=1;outlineConnect=0;" vertex="1" parent="1">
          <mxGeometry x="100" y="510" width="30" height="60" as="geometry" />
        </mxCell>
        <mxCell id="RhceqjklY6ZLj0Ik1nLE-4" value="Juiz" style="shape=umlActor;verticalLabelPosition=bottom;verticalAlign=top;html=1;outlineConnect=0;" vertex="1" parent="1">
          <mxGeometry x="730" y="400" width="30" height="60" as="geometry" />
        </mxCell>
        <mxCell id="RhceqjklY6ZLj0Ik1nLE-20" value="" style="endArrow=classic;html=1;rounded=0;entryX=0.027;entryY=0.65;entryDx=0;entryDy=0;entryPerimeter=0;" edge="1" parent="1" target="RhceqjklY6ZLj0Ik1nLE-15">
          <mxGeometry width="50" height="50" relative="1" as="geometry">
            <mxPoint x="150" y="260" as="sourcePoint" />
            <mxPoint x="200" y="210" as="targetPoint" />
          </mxGeometry>
        </mxCell>
        <mxCell id="RhceqjklY6ZLj0Ik1nLE-21" value="" style="endArrow=classic;html=1;rounded=0;entryX=0;entryY=0.5;entryDx=0;entryDy=0;" edge="1" parent="1" target="RhceqjklY6ZLj0Ik1nLE-16">
          <mxGeometry width="50" height="50" relative="1" as="geometry">
            <mxPoint x="140" y="550" as="sourcePoint" />
            <mxPoint x="190" y="500" as="targetPoint" />
          </mxGeometry>
        </mxCell>
        <mxCell id="RhceqjklY6ZLj0Ik1nLE-23" value="" style="endArrow=classic;html=1;rounded=0;" edge="1" parent="1">
          <mxGeometry width="50" height="50" relative="1" as="geometry">
            <mxPoint x="150" y="260" as="sourcePoint" />
            <mxPoint x="240" y="330" as="targetPoint" />
          </mxGeometry>
        </mxCell>
        <mxCell id="RhceqjklY6ZLj0Ik1nLE-29" value="" style="endArrow=classic;html=1;rounded=0;entryX=0;entryY=0.5;entryDx=0;entryDy=0;" edge="1" parent="1" target="RhceqjklY6ZLj0Ik1nLE-19">
          <mxGeometry width="50" height="50" relative="1" as="geometry">
            <mxPoint x="150" y="260" as="sourcePoint" />
            <mxPoint x="200" y="210" as="targetPoint" />
          </mxGeometry>
        </mxCell>
      </root>
    </mxGraphModel>
  </diagram>
</mxfile>
